<?xml version="1.0" encoding="UTF-8" standalone="no"?>
<svg
   width="227.76401"
   height="198"
   version="1.1"
   id="svg8"
   sodipodi:docname="nix-grid.svg"
   inkscape:version="1.1.1 (3bf5ae0d25, 2021-09-20)"
   xmlns:inkscape="http://www.inkscape.org/namespaces/inkscape"
   xmlns:sodipodi="http://sodipodi.sourceforge.net/DTD/sodipodi-0.dtd"
   xmlns="http://www.w3.org/2000/svg"
   xmlns:svg="http://www.w3.org/2000/svg"
   xmlns:rdf="http://www.w3.org/1999/02/22-rdf-syntax-ns#"
   xmlns:cc="http://creativecommons.org/ns#"
   xmlns:dc="http://purl.org/dc/elements/1.1/">
  <defs
     id="defs12" />
  <sodipodi:namedview
     id="namedview10"
     pagecolor="#505050"
     bordercolor="#ffffff"
     borderopacity="1"
     inkscape:pageshadow="0"
     inkscape:pageopacity="0"
     inkscape:pagecheckerboard="1"
     showgrid="false"
     inkscape:zoom="4.0233333"
     inkscape:cx="263.83596"
     inkscape:cy="173.98509"
     inkscape:window-width="1383"
     inkscape:window-height="837"
     inkscape:window-x="0"
     inkscape:window-y="0"
     inkscape:window-maximized="0"
     inkscape:current-layer="svg8" />
  <title
     id="title2">nix-grid</title>
  <path
     d="m 69.1374,0 h -11.547 l 5.7735,10 z m 1.299,0.75 -5.7735,10 h 11.547 z m -14.1451,0 -5.7735,10 h 11.547 z m 20.2073,11.5 H 64.6629 l 5.9178,10.25 z m -14.4338,0 h -11.547 l 5.7735,10 z M 63.3639,13 57.446,23.25 h 11.8357 z m 14.2894,0.25 -5.7735,10 h 11.547 z m 6.0622,11.5 H 71.8798 L 77.7976,35 Z m -14.4338,0 h -11.547 l 5.7735,10 z m 1.299,0.75 -5.9178,10.25 h 11.8357 z m 14.2894,0.25 -5.7735,10 h 11.5471 z m 6.0622,11.5 H 79.0966 l 5.9179,10.25 z m -14.4337,0 h -11.547 l 0.1443,0.25 h -0.2887 l 5.7735,10 z m 28.72314,0.25 H 93.6747 l 5.7735,10 z m 14.43376,0 h -11.547 l 5.7735,10 z m -69.282,0 5.7735,10 5.7735,-10 z m -14.4338,0 5.7735,10 5.7735,-10 z m 70.72543,0.5 -5.91783,10.25 h 11.83567 z M 63.3639,38 57.446,48.25 h 11.8357 z m 28.8675,0 -5.9179,10.25 h 11.8357 z m -14.4338,0 -5.9178,10.25 h 11.8357 z m -28.8675,0 -5.9179,10.25 h 11.8357 z m 72.02443,0.25 -5.7735,10 H 126.728 Z m -86.31383,0 -5.7735,10 h 11.547 z m 158.627,0.25 -5.6292,9.75 h 11.2583 z M 98.1492,49.75 H 86.3135 L 92.2314,60 Z m 14.43377,0 H 100.7473 L 106.66513,60 Z m 14.43373,0 H 115.18103 L 121.09887,60 Z m 72.1688,0 H 187.3498 L 193.2677,60 Z m -115.47,0 H 71.8798 L 77.7976,60 Z m -14.4338,0 H 57.446 L 63.3639,60 Z m -14.4338,0 H 43.0122 L 48.9301,60 Z m -14.4337,0 H 28.5785 L 34.4963,60 Z m 59.034,0.75 -5.7735,10 h 11.54705 z m 14.4338,0 -5.77351,10 h 11.54702 z m -72.1688,0 -5.7735,10 h 11.547 z m 14.4338,0 -5.7735,10 h 11.547 z m 14.4337,0 -5.7735,10 h 11.547 z m 14.4338,0 -5.7735,10 h 11.547 z m 101.1806,0.25 -5.7735,10 h 11.547 z m -158.7713,0 -5.6291,9.75 H 33.053 Z m 100.7476,0 -5.62915,9.75 h 11.25835 z m 72.1688,0 -5.7735,10 h 11.547 z m 5.7735,11.5 h -11.547 l 5.7735,10 z m -14.1451,0 h -11.8357 l 5.9179,10.25 z m 1.2991,0.75 -5.9179,10.25 h 11.8357 z m -14.2894,0.25 -5.7736,10 h 11.5471 z m 19.9185,11.5 h -11.547 l 5.7735,10 z m -14.145,0 H 172.9161 L 178.8339,85 Z m 1.299,0.75 -5.9179,10.25 h 11.8357 z m -14.2894,0.25 -5.7735,10 h 11.547 z m 5.7735,11.5 h -11.8357 l 5.9178,10.25002 z m 14.2894,0.25 h -0.2887 l 0.1443,-0.25 h -11.547 l 5.9179,10.25002 z m 14.4338,0 H 194.711 l 5.7735,10.00002 z m 14.4339,0 h -11.5472 l 5.7732,10.00002 z m -27.4243,0.5 -5.9179,10.25 h 11.8357 z m 14.4337,0 -5.9178,10.25 h 11.8357 z m -28.8675,0 -5.9178,10.25 h 11.8357 z m -14.2894,0.25 -5.7735,10 h 11.547 z m 57.4465,0 -5.774,10 h 11.547 z m 5.773,11.5 h -11.547 l 5.774,10 z m -14.1447,0 h -11.8357 l 5.9178,10.25 z m -14.4338,0 h -11.8357 l 5.9179,10.25 z m -14.4337,0 h -11.8357 l 5.9178,10.25 z m -14.4338,0 h -11.8357 l 5.9178,10.25 z m 21.5063,10.75 -5.7735,-10.00002 -5.7735,10.00002 z m 28.8677,0 -5.774,-10.00002 -5.7732,10.00002 z m -14.434,0 -5.7735,-10.00002 L 194.711,110.5 Z M 171.617,100.49998 165.6992,110.75 h 11.8357 z m -14.2894,0.25 -5.7735,10.00002 h 11.547 z M 70.5807,101 l -5.6291,9.75 h 11.2583 z m 106.6655,11.25 h -11.547 l 5.7735,10 z m -14.1451,0 h -11.8357 l 5.9179,10.25 z m -86.6025,0 H 64.6629 l 5.9178,10.25 z m 87.9015,0.75 -5.9178,10.25 h 11.8357 z m -100.8919,0.25 -5.7735,10 h 11.547 z m 14.1451,0 -5.7735,10 h 11.547 z m 72.4574,0 -5.7735,10 h 11.547 z m 19.9186,11.5 h -11.547 l 5.7735,10 z m -14.1451,0 h -11.8357 l 5.9179,10.25 z m -72.1687,0 H 71.8798 L 77.7976,135 Z m -14.4338,0 h -11.547 l 5.7735,10 z m 87.9016,0.75 -5.7735,10 h 11.547 z m -86.6026,0 -5.9178,10.25 h 11.8357 z m 72.3131,0.25 -5.6291,9.75 h 11.2583 z m -58.0237,0 -5.7735,10 h 11.547 z m 6.0622,11.5 H 79.0966 l 5.9179,10.25 z m -14.4337,0 h -11.547 l 5.7735,10 z m 1.299,0.75 -5.9178,10.25 h 11.8357 z m 14.2894,0.25 -5.7735,10 h 11.547 z m -8.3715,11.5 H 71.8798 L 77.7976,160 Z m 14.4337,0 H 86.3135 L 92.2314,160 Z m -13.1347,0.75 -5.9179,10.25 h 11.8357 z m -14.2894,0.25 -5.7735,10 h 11.547 z m 28.5788,0 -5.7735,10 h 11.54699 z m -8.3716,11.5 H 79.0966 l 5.7735,10 0.1444,-0.25 0.1443,0.25 z m 14.43379,0 H 93.5304 l 5.9178,10.25 z m -28.86749,0 H 64.6629 l 5.9178,10.25 z m 1.299,0.75 -5.9178,10.25 h 11.8357 z m 14.4338,0 -5.9179,10.25 h 11.8357 z m -28.7232,0.25 -5.7735,10 h 11.547 z m 43.01258,0 -5.77348,10 h 11.54698 z m -23.09398,11.5 h -11.547 l 5.7735,10 z m 29.15617,0 H 100.7473 l 5.91783,10.25 z m -43.30127,0 H 57.446 L 63.3639,185 Z m 28.8675,0 h -11.547 l 5.7735,10 z m 1.299,0.75 -5.9178,10.25 h 11.83569 z m -28.8675,0 -5.9178,10.25 h 11.8357 z m -14.2894,0.25 -5.7735,10 h 11.547 z m 57.44635,0 -5.7735,10 h 11.547 z m -37.52775,11.5 h -11.547 l 5.7735,10 z m 43.58995,0 h -11.8357 l 5.91785,10.25 z m -57.73505,0 h -11.547 l 5.7735,10 z m 43.30129,0 H 93.8191 l 5.7735,10 z M 63.3639,188 57.5904,198 h 11.547 z m 43.30123,0 -5.77353,10 h 11.54701 z m 14.2894,0.25 -5.62914,9.75 h 11.25831 z"
     fill="#5277c3"
     id="path4" />
  <path
     d="M 112.43861,0 H 101.1803 l 5.62917,9.75 z m 57.73499,0 h -11.547 l 5.7735,10 z m -43.3012,0 h -11.54701 l 5.77348,10 z m -12.9904,0.5 -5.91785,10.25 h 11.8357 z m 43.4456,0.25 -5.7735,10 h 11.547 z m -29.1562,0 -5.77349,10 h 11.54699 z m 43.3013,0 -5.7735,10 h 11.547 z m -37.2391,11.5 h -11.83569 l 5.91789,10.25 z m 28.8675,0 h -11.8357 l 5.9179,10.25 z m 14.1451,0 h -11.547 l 5.7735,10 z m -57.44635,0 h -11.547 l 5.7735,10 z m 1.29902,0.75 -5.91784,10.25 h 11.83567 z m 43.30123,0 -5.9178,10.25 h 11.8357 z m -14.2894,0.25 -5.7735,10 h 11.547 z m -14.7224,0 -5.7735,10 h 11.547 z m 34.641,11.5 h -11.547 l 5.7735,10 z m -14.1451,0 H 144.0485 L 149.9664,35 Z m -14.4337,0 H 129.6148 L 135.5326,35 Z m -14.4338,0 h -11.54698 l 5.7735,10 z m 1.2991,0.75 -5.91789,10.25 h 11.83569 z m 28.8675,0 -5.9179,10.25 h 11.8357 z m -14.2894,0.25 -0.1444,0.25 -0.1443,-0.25 -5.7735,10 h 11.8357 z m 5.7735,11.5 h -11.8357 l 5.9178,10.25 z m 14.145,0 h -11.547 l 5.7735,10 z m -28.5788,0 h -11.54699 l 5.77349,10 z m 15.7328,0.75 -5.9179,10.25 h 11.8357 z m -14.4338,0 -5.9178,10.25 h 11.8357 z m 20.3516,11.75 H 144.0485 L 149.9664,60 Z m -14.4337,0 h -11.547 l 5.7735,10 z m 1.299,0.75 -5.9178,10.25 h 11.8357 z m 14.2894,0.25 -5.7735,10 h 11.547 z m 6.0622,11.5 h -11.8357 l 5.9179,10.25 z m -14.4337,0 h -11.547 l 5.7735,10 z M 76.3542,62.5 h -11.547 l 5.7735,10 z m 14.1451,0 H 79.241 l 5.6292,9.75 z M 77.7976,63 71.8798,73.25 h 11.8357 z m 72.1688,0 -5.9179,10.25 h 11.8357 z m 14.2894,0.25 -5.7735,10 h 11.547 z m -100.7476,0 -5.7735,10 h 11.547 z m 106.5211,11.5 h -11.547 l 5.7735,10 z m -86.6025,0 h -11.547 l 5.7735,10 z m -14.1451,0 H 57.446 L 63.3639,85 Z m 86.6025,0 h -11.547 l 5.7735,10 z m 1.2991,0.75 -5.9179,10.25 h 11.8357 z m -86.6026,0 -5.9178,10.25 h 11.8357 z m -14.2894,0.25 -5.7735,10 h 11.547 z m 5.7735,11.5 H 50.2291 l 5.9179,10.25002 z m 14.1451,0 h -11.547 l 5.7735,10.00002 z m 86.6025,0 H 151.5541 L 157.1833,97 Z M 47.4867,87.5 h -11.547 l 5.7735,10.00002 z m -14.4337,0 H 21.506 l 5.7735,10.00002 z m -14.4338,0 H 7.072 l 5.774,10.00002 z M 34.4963,88 28.5785,98.25 h 11.8357 z m 14.4338,0 -5.9179,10.25 H 54.8479 Z M 63.3639,88 57.446,98.25 H 69.2817 Z M 20.0626,88 14.1447,98.25 H 25.9804 Z M 5.773,88.25 0,98.25 h 11.547 z m 63.22,11.5 H 57.446 l 5.7735,10 z m -14.1451,0 H 43.0122 L 48.9301,110 Z m -14.4337,0 H 28.5785 L 34.4963,110 Z m -14.4338,0 H 14.1447 L 20.0626,110 Z m -14.4334,0 H 0 l 5.773,10 z M 27.2795,100.49998 21.5059,110.5 H 33.053 Z m 14.4337,0 L 35.9397,110.5 h 0.2887 l -0.1443,0.25 h 11.547 z m -28.8672,0 L 7.072,110.5 h 11.5472 z m 43.301,0 L 50.2291,110.75 H 62.0648 Z M 61.7761,112.25 h -11.547 l 5.7735,10 z m -14.145,0 H 35.7954 l 5.9178,10.25 z m 1.299,0.75 -5.9179,10.25 h 11.8357 z m -14.2894,0.25 -5.7735,10 h 11.547 z m 19.9186,11.5 H 43.0122 l 5.7735,10 z m -14.1451,0 H 28.5785 L 34.4963,135 Z m 1.299,0.75 -5.9178,10.25 h 11.8357 z m -14.2894,0.25 -5.7735,10 h 11.547 z m 19.9186,11.5 h -11.547 l 5.7735,10 z m -14.1451,0 h -11.547 l 5.7735,10 z m 72.02445,0.25 H 93.9634 l 5.6292,9.75 z m 14.43376,0 h -11.54702 l 5.77351,10 z m 14.43379,0 h -11.54705 l 5.77355,10 z m 14.4337,0 h -11.547 l 5.7735,10 z m 14.4338,0 h -11.547 l 5.7735,10 z m 14.4337,0 h -11.547 l 5.7735,10 z m 14.4338,0 h -11.547 l 5.7735,10 z m 14.145,0 H 194.711 l 5.6292,9.75 z m -12.7016,0.5 -5.9179,10.25 h 11.8357 z m -14.4338,0 -5.9178,10.25 h 11.8357 z m -14.4338,0 -5.9178,10.25 h 11.8357 z m -57.73497,0 -5.91783,10.25 h 11.83567 z m 14.43374,0 -5.91784,10.25 h 11.83567 z m 28.86753,0 -5.9179,10.25 h 11.8357 z m -14.4338,0 -5.9178,10.25 h 11.8357 z m -101.0363,0 -5.9178,10.25 h 11.8357 z m 106.9542,11.75 h -11.8357 l 5.9178,10.25 z m 14.4337,0 h -11.8357 l 5.9179,10.25 z m 14.4338,0 h -11.8357 l 5.9178,10.25 z m 14.4338,0 h -11.8357 l 5.9178,10.25 z m 14.145,0 h -11.547 l 5.7735,10 z m -71.8801,0 h -11.83567 l 5.91784,10.25 z m -86.8912,0 H 28.8672 l 5.6291,9.75 z m 72.45747,0 H 101.036 l 5.77347,10 z m 79.24133,10.75 -5.7735,-10 -5.7735,10 z m -14.4338,0 -5.7735,-10 -5.7735,10 z m -14.7224,0 h 0.2887 l -5.7735,-10 -5.9179,10.25 h 11.547 z m -48.7861,-10 -5.7735,10 h 11.547 z m 28.8675,0 -5.9178,10.25 h 11.8357 z m -14.4337,0 -5.77354,10 h 11.54704 z m 34.7853,11.75 h -11.8357 l 5.9179,10.25 z m -14.4337,0 h -11.5471 l 5.7736,10 z m 1.299,0.75 -5.9179,10.25 h 11.8357 z m 14.2894,0.25 -5.7735,10 h 11.547 z m 6.0622,11.5 h -11.8357 l 5.9178,10.25 z m -14.4338,0 h -11.547 l 5.7735,10 z m 1.2991,0.75 -5.9179,10.25 h 11.8357 z m 14.2894,0.25 -5.7735,10 h 11.547 z m 5.7735,11.5 h -11.547 l 5.7735,10 z m -14.1451,0 h -11.547 l 5.7735,10 z m 1.299,0.75 -5.7735,10 h 11.547 z"
     fill="#7caedc"
     id="path6" />
  <metadata
     id="metadata829">
    <rdf:RDF>
      <cc:Work
         rdf:about="">
        <dc:title>nix-grid</dc:title>
      </cc:Work>
    </rdf:RDF>
  </metadata>
</svg>
